<svg width="200" height="200" viewBox="0 0 200 200" fill="none" xmlns="http://www.w3.org/2000/svg">
<mask id="mask0_1730_16228" style="mask-type:alpha" maskUnits="userSpaceOnUse" x="0" y="0" width="200" height="200">
<circle cx="100" cy="100" r="100" fill="#D9D9D9"/>
</mask>
<g mask="url(#mask0_1730_16228)">
<mask id="mask1_1730_16228" style="mask-type:alpha" maskUnits="userSpaceOnUse" x="31" y="29" width="213" height="213">
<rect x="31" y="170.423" width="200" height="100" transform="rotate(-45 31 170.423)" fill="#D9D9D9"/>
</mask>
<g mask="url(#mask1_1730_16228)">
<mask id="mask2_1730_16228" style="mask-type:alpha" maskUnits="userSpaceOnUse" x="1" y="-2" width="200" height="201">
<circle cx="101" cy="98.9976" r="100" fill="#D9D9D9"/>
</mask>
<g mask="url(#mask2_1730_16228)">
<circle cx="101" cy="98.9976" r="100" fill="white"/>
<rect x="1" y="-1.00244" width="66" height="200" fill="#203B74"/>
<rect x="134" y="-1.00244" width="66" height="200" fill="#E72A2E"/>
</g>
</g>
<mask id="mask3_1730_16228" style="mask-type:alpha" maskUnits="userSpaceOnUse" x="-39" y="-41" width="213" height="213">
<rect x="-39" y="100.421" width="200" height="100" transform="rotate(-45 -39 100.421)" fill="#D9D9D9"/>
</mask>
<g mask="url(#mask3_1730_16228)">
<mask id="mask4_1730_16228" style="mask-type:alpha" maskUnits="userSpaceOnUse" x="3" y="0" width="200" height="201">
<circle cx="103" cy="100.997" r="100" fill="#D9D9D9"/>
</mask>
<g mask="url(#mask4_1730_16228)">
<path d="M203 100.997C203 156.226 158.228 200.997 103 200.997C47.7715 200.997 3 156.226 3 100.997C3 45.7688 47.7715 0.997314 103 0.997314C158.228 0.997314 203 45.7688 203 100.997Z" fill="#E72A2E"/>
<rect x="43" y="0.997314" width="47" height="200" fill="white"/>
<rect x="3" y="123.997" width="47" height="200" transform="rotate(-90 3 123.997)" fill="white"/>
<rect x="3" y="112.997" width="25" height="200" transform="rotate(-90 3 112.997)" fill="#203B74"/>
<rect x="53" y="0.997314" width="25" height="200" fill="#203B74"/>
</g>
</g>
</g>
</svg>
